<svg width="739" height="246" viewBox="0 0 739 246" fill="none" xmlns="http://www.w3.org/2000/svg">
<path opacity="0.5" d="M68.0703 4V47C68.0703 58.0457 77.0246 67 88.0703 67H129.57" stroke="url(#paint0_linear_11_54)" stroke-width="5"/>
<path opacity="0.5" d="M671.57 66.9995V23.9995C671.57 12.9538 662.615 3.99952 651.57 3.99952L610.07 3.99952" stroke="url(#paint1_linear_11_54)" stroke-width="5"/>
<g filter="url(#filter0_dddddddd_11_54)">
<path d="M116.758 34C116.758 38.3099 115.951 42.0013 114.336 45.0742C112.734 48.1341 110.547 50.4779 107.773 52.1055C105.013 53.7331 101.882 54.5469 98.3789 54.5469C94.8763 54.5469 91.7383 53.7331 88.9648 52.1055C86.2044 50.4648 84.0169 48.1146 82.4023 45.0547C80.8008 41.9818 80 38.2969 80 34C80 29.6901 80.8008 26.0052 82.4023 22.9453C84.0169 19.8724 86.2044 17.5221 88.9648 15.8945C91.7383 14.2669 94.8763 13.4531 98.3789 13.4531C101.882 13.4531 105.013 14.2669 107.773 15.8945C110.547 17.5221 112.734 19.8724 114.336 22.9453C115.951 26.0052 116.758 29.6901 116.758 34ZM109.473 34C109.473 30.9661 108.997 28.4076 108.047 26.3242C107.109 24.2279 105.807 22.6458 104.141 21.5781C102.474 20.4974 100.553 19.957 98.3789 19.957C96.2044 19.957 94.2839 20.4974 92.6172 21.5781C90.9505 22.6458 89.6419 24.2279 88.6914 26.3242C87.7539 28.4076 87.2852 30.9661 87.2852 34C87.2852 37.0339 87.7539 39.599 88.6914 41.6953C89.6419 43.7786 90.9505 45.3607 92.6172 46.4414C94.2839 47.5091 96.2044 48.043 98.3789 48.043C100.553 48.043 102.474 47.5091 104.141 46.4414C105.807 45.3607 107.109 43.7786 108.047 41.6953C108.997 39.599 109.473 37.0339 109.473 34ZM142.417 41.3828V24H149.487V54H142.632V48.668H142.319C141.642 50.3477 140.529 51.7214 138.979 52.7891C137.443 53.8568 135.549 54.3906 133.296 54.3906C131.33 54.3906 129.591 53.9544 128.081 53.082C126.584 52.1966 125.412 50.9141 124.565 49.2344C123.719 47.5417 123.296 45.4974 123.296 43.1016V24H130.366V42.0078C130.366 43.9089 130.887 45.4193 131.929 46.5391C132.97 47.6589 134.338 48.2187 136.03 48.2187C137.072 48.2187 138.081 47.9648 139.058 47.457C140.034 46.9492 140.835 46.194 141.46 45.1914C142.098 44.1758 142.417 42.9062 142.417 41.3828ZM156.758 54V24H163.613V29H163.926C164.473 27.2682 165.41 25.9336 166.738 24.9961C168.079 24.0456 169.609 23.5703 171.328 23.5703C171.719 23.5703 172.155 23.5898 172.637 23.6289C173.132 23.6549 173.542 23.7005 173.867 23.7656V30.2695C173.568 30.1654 173.092 30.0742 172.441 29.9961C171.803 29.9049 171.185 29.8594 170.586 29.8594C169.297 29.8594 168.138 30.1393 167.109 30.6992C166.094 31.2461 165.293 32.0078 164.707 32.9844C164.121 33.9609 163.828 35.0872 163.828 36.3633V54H156.758ZM190.762 20.0742V14H222.676V20.0742H210.313V54H203.125V20.0742H190.762ZM237.251 54.5859C234.321 54.5859 231.782 53.9414 229.634 52.6523C227.485 51.3633 225.819 49.5599 224.634 47.2422C223.462 44.9245 222.876 42.2161 222.876 39.1172C222.876 36.0182 223.462 33.3034 224.634 30.9727C225.819 28.6419 227.485 26.832 229.634 25.543C231.782 24.2539 234.321 23.6094 237.251 23.6094C240.181 23.6094 242.72 24.2539 244.868 25.543C247.017 26.832 248.677 28.6419 249.849 30.9727C251.034 33.3034 251.626 36.0182 251.626 39.1172C251.626 42.2161 251.034 44.9245 249.849 47.2422C248.677 49.5599 247.017 51.3633 244.868 52.6523C242.72 53.9414 240.181 54.5859 237.251 54.5859ZM237.29 48.9219C238.879 48.9219 240.207 48.4857 241.274 47.6133C242.342 46.7279 243.136 45.543 243.657 44.0586C244.191 42.5742 244.458 40.9206 244.458 39.0977C244.458 37.2617 244.191 35.6016 243.657 34.1172C243.136 32.6198 242.342 31.4284 241.274 30.543C240.207 29.6576 238.879 29.2148 237.29 29.2148C235.662 29.2148 234.308 29.6576 233.228 30.543C232.16 31.4284 231.359 32.6198 230.825 34.1172C230.304 35.6016 230.044 37.2617 230.044 39.0977C230.044 40.9206 230.304 42.5742 230.825 44.0586C231.359 45.543 232.16 46.7279 233.228 47.6133C234.308 48.4857 235.662 48.9219 237.29 48.9219ZM257.627 65.25V24H264.58V28.9609H264.99C265.355 28.2318 265.869 27.457 266.533 26.6367C267.197 25.8034 268.096 25.0937 269.229 24.5078C270.361 23.9089 271.807 23.6094 273.564 23.6094C275.882 23.6094 277.972 24.2018 279.834 25.3867C281.709 26.5586 283.193 28.2969 284.287 30.6016C285.394 32.8932 285.947 35.7057 285.947 39.0391C285.947 42.3333 285.407 45.1328 284.326 47.4375C283.245 49.7422 281.774 51.5 279.912 52.7109C278.05 53.9219 275.941 54.5273 273.584 54.5273C271.865 54.5273 270.439 54.2409 269.307 53.668C268.174 53.0951 267.262 52.4049 266.572 51.5977C265.895 50.7773 265.368 50.0026 264.99 49.2734H264.697V65.25H257.627ZM264.561 39C264.561 40.9401 264.834 42.6393 265.381 44.0977C265.941 45.556 266.742 46.6953 267.783 47.5156C268.838 48.3229 270.114 48.7266 271.611 48.7266C273.174 48.7266 274.482 48.3099 275.537 47.4766C276.592 46.6302 277.386 45.4779 277.92 44.0195C278.467 42.5482 278.74 40.875 278.74 39C278.74 37.138 278.473 35.4844 277.939 34.0391C277.406 32.5937 276.611 31.4609 275.557 30.6406C274.502 29.8203 273.187 29.4102 271.611 29.4102C270.101 29.4102 268.818 29.8073 267.764 30.6016C266.709 31.3958 265.908 32.5091 265.361 33.9414C264.827 35.3737 264.561 37.0599 264.561 39ZM327.695 24.9961C327.513 23.2904 326.745 21.9622 325.391 21.0117C324.049 20.0612 322.305 19.5859 320.156 19.5859C318.646 19.5859 317.35 19.8138 316.27 20.2695C315.189 20.7253 314.362 21.3437 313.789 22.125C313.216 22.9062 312.923 23.7982 312.91 24.8008C312.91 25.6341 313.099 26.3568 313.477 26.9687C313.867 27.5807 314.395 28.1016 315.059 28.5312C315.723 28.9479 316.458 29.2995 317.266 29.5859C318.073 29.8724 318.887 30.1133 319.707 30.3086L323.457 31.2461C324.967 31.5977 326.419 32.0729 327.813 32.6719C329.219 33.2708 330.475 34.026 331.582 34.9375C332.702 35.849 333.587 36.9492 334.238 38.2383C334.889 39.5273 335.215 41.0378 335.215 42.7695C335.215 45.1133 334.616 47.1771 333.418 48.9609C332.22 50.7318 330.488 52.1185 328.223 53.1211C325.97 54.1107 323.242 54.6055 320.039 54.6055C316.927 54.6055 314.225 54.1237 311.934 53.1602C309.655 52.1966 307.871 50.7904 306.582 48.9414C305.306 47.0924 304.616 44.8398 304.512 42.1836H311.641C311.745 43.5768 312.174 44.7357 312.93 45.6602C313.685 46.5846 314.668 47.2747 315.879 47.7305C317.103 48.1862 318.47 48.4141 319.98 48.4141C321.556 48.4141 322.936 48.1797 324.121 47.7109C325.319 47.2292 326.257 46.5651 326.934 45.7187C327.611 44.8594 327.956 43.8568 327.969 42.7109C327.956 41.6693 327.65 40.8099 327.051 40.1328C326.452 39.4427 325.612 38.8698 324.531 38.4141C323.464 37.9453 322.214 37.5286 320.781 37.1641L316.23 35.9922C312.936 35.1458 310.332 33.8633 308.418 32.1445C306.517 30.4128 305.566 28.1146 305.566 25.25C305.566 22.8932 306.204 20.8294 307.48 19.0586C308.77 17.2878 310.521 15.9141 312.734 14.9375C314.948 13.9479 317.454 13.4531 320.254 13.4531C323.092 13.4531 325.579 13.9479 327.715 14.9375C329.863 15.9141 331.549 17.2747 332.773 19.0195C333.997 20.7513 334.629 22.7435 334.668 24.9961H327.695ZM354.644 54.5859C351.636 54.5859 349.038 53.9609 346.851 52.7109C344.676 51.4479 343.003 49.6641 341.831 47.3594C340.659 45.0417 340.073 42.3138 340.073 39.1758C340.073 36.0898 340.659 33.3815 341.831 31.0508C343.016 28.707 344.67 26.8841 346.792 25.582C348.914 24.2669 351.408 23.6094 354.272 23.6094C356.121 23.6094 357.866 23.9089 359.507 24.5078C361.16 25.0937 362.619 26.0052 363.882 27.2422C365.158 28.4792 366.16 30.0547 366.89 31.9687C367.619 33.8698 367.983 36.1354 367.983 38.7656V40.9336H343.394V36.168H361.206C361.193 34.8138 360.9 33.6094 360.327 32.5547C359.754 31.487 358.953 30.6471 357.925 30.0352C356.909 29.4232 355.724 29.1172 354.37 29.1172C352.925 29.1172 351.655 29.4687 350.562 30.1719C349.468 30.862 348.615 31.7734 348.003 32.9062C347.404 34.026 347.098 35.2565 347.085 36.5977V40.7578C347.085 42.5026 347.404 44 348.042 45.25C348.68 46.487 349.572 47.4375 350.718 48.1016C351.864 48.7526 353.205 49.0781 354.741 49.0781C355.77 49.0781 356.701 48.9349 357.534 48.6484C358.368 48.349 359.09 47.9128 359.702 47.3398C360.314 46.7669 360.776 46.0573 361.089 45.2109L367.69 45.9531C367.274 47.6979 366.479 49.2214 365.308 50.5234C364.149 51.8125 362.664 52.8151 360.854 53.5312C359.045 54.2344 356.974 54.5859 354.644 54.5859ZM381.035 14V54H373.965V14H381.035ZM395.376 14V54H388.306V14H395.376ZM402.646 54V24H409.717V54H402.646ZM406.201 19.7422C405.081 19.7422 404.118 19.3711 403.311 18.6289C402.503 17.8737 402.1 16.9687 402.1 15.9141C402.1 14.8464 402.503 13.9414 403.311 13.1992C404.118 12.444 405.081 12.0664 406.201 12.0664C407.334 12.0664 408.298 12.444 409.092 13.1992C409.899 13.9414 410.303 14.8464 410.303 15.9141C410.303 16.9687 409.899 17.8737 409.092 18.6289C408.298 19.3711 407.334 19.7422 406.201 19.7422ZM424.058 36.4219V54H416.987V24H423.745V29.0977H424.097C424.787 27.418 425.887 26.0833 427.397 25.0937C428.921 24.1042 430.802 23.6094 433.042 23.6094C435.112 23.6094 436.916 24.0521 438.452 24.9375C440.002 25.8229 441.2 27.1055 442.046 28.7852C442.905 30.4648 443.328 32.5026 443.315 34.8984V54H436.245V35.9922C436.245 33.987 435.724 32.418 434.683 31.2852C433.654 30.1523 432.228 29.5859 430.405 29.5859C429.168 29.5859 428.068 29.8594 427.104 30.4062C426.154 30.9401 425.405 31.7148 424.858 32.7305C424.325 33.7461 424.058 34.9766 424.058 36.4219ZM463.55 65.875C461.011 65.875 458.83 65.5299 457.007 64.8398C455.184 64.1628 453.719 63.2513 452.612 62.1055C451.506 60.9596 450.737 59.6901 450.308 58.2969L456.675 56.7539C456.961 57.3398 457.378 57.9193 457.925 58.4922C458.472 59.0781 459.207 59.5599 460.132 59.9375C461.069 60.3281 462.248 60.5234 463.667 60.5234C465.672 60.5234 467.332 60.0352 468.647 59.0586C469.963 58.0951 470.62 56.5065 470.62 54.293V48.6094H470.269C469.904 49.3385 469.37 50.0872 468.667 50.8555C467.977 51.6237 467.059 52.2682 465.913 52.7891C464.78 53.3099 463.354 53.5703 461.636 53.5703C459.331 53.5703 457.241 53.0299 455.366 51.9492C453.504 50.8555 452.02 49.2279 450.913 47.0664C449.819 44.8919 449.272 42.1706 449.272 38.9023C449.272 35.6081 449.819 32.8281 450.913 30.5625C452.02 28.2839 453.511 26.5586 455.386 25.3867C457.261 24.2018 459.351 23.6094 461.655 23.6094C463.413 23.6094 464.858 23.9089 465.991 24.5078C467.137 25.0937 468.049 25.8034 468.726 26.6367C469.403 27.457 469.917 28.2318 470.269 28.9609H470.659V24H477.632V54.4883C477.632 57.0534 477.02 59.1758 475.796 60.8555C474.572 62.5352 472.899 63.7917 470.776 64.625C468.654 65.4583 466.245 65.875 463.55 65.875ZM463.608 48.0234C465.106 48.0234 466.382 47.6589 467.437 46.9297C468.491 46.2005 469.292 45.1523 469.839 43.7852C470.386 42.418 470.659 40.7773 470.659 38.8633C470.659 36.9753 470.386 35.3216 469.839 33.9023C469.305 32.4831 468.511 31.3828 467.456 30.6016C466.414 29.8073 465.132 29.4102 463.608 29.4102C462.033 29.4102 460.718 29.8203 459.663 30.6406C458.608 31.4609 457.814 32.5872 457.28 34.0195C456.746 35.4388 456.479 37.0534 456.479 38.8633C456.479 40.6992 456.746 42.3073 457.28 43.6875C457.827 45.0547 458.628 46.1224 459.683 46.8906C460.75 47.6458 462.059 48.0234 463.608 48.0234ZM498.833 54V14H513.833C516.906 14 519.484 14.5729 521.567 15.7187C523.664 16.8646 525.246 18.4401 526.313 20.4453C527.394 22.4375 527.935 24.7031 527.935 27.2422C527.935 29.8073 527.394 32.0859 526.313 34.0781C525.233 36.0703 523.638 37.6393 521.528 38.7852C519.419 39.918 516.821 40.4844 513.735 40.4844H503.794V34.5273H512.759C514.556 34.5273 516.027 34.2148 517.173 33.5898C518.319 32.9648 519.165 32.1055 519.712 31.0117C520.272 29.918 520.552 28.6615 520.552 27.2422C520.552 25.8229 520.272 24.5729 519.712 23.4922C519.165 22.4115 518.312 21.5716 517.153 20.9727C516.007 20.3607 514.53 20.0547 512.72 20.0547H506.079V54H498.833ZM540.986 14V54H533.916V14H540.986ZM556.89 54.6055C554.989 54.6055 553.276 54.2669 551.753 53.5898C550.243 52.8997 549.045 51.8841 548.159 50.543C547.287 49.2018 546.851 47.5482 546.851 45.582C546.851 43.8893 547.163 42.4896 547.788 41.3828C548.413 40.276 549.266 39.3906 550.347 38.7266C551.427 38.0625 552.645 37.5612 553.999 37.2227C555.366 36.8711 556.779 36.6172 558.237 36.4609C559.995 36.2786 561.421 36.1159 562.515 35.9727C563.608 35.8164 564.403 35.582 564.897 35.2695C565.405 34.944 565.659 34.4427 565.659 33.7656V33.6484C565.659 32.1771 565.223 31.0378 564.351 30.2305C563.478 29.4232 562.222 29.0195 560.581 29.0195C558.849 29.0195 557.476 29.3971 556.46 30.1523C555.457 30.9076 554.78 31.7995 554.429 32.8281L547.827 31.8906C548.348 30.0677 549.207 28.5443 550.405 27.3203C551.603 26.0833 553.068 25.1589 554.8 24.5469C556.532 23.9219 558.446 23.6094 560.542 23.6094C561.987 23.6094 563.426 23.7786 564.858 24.1172C566.291 24.4557 567.599 25.0156 568.784 25.7969C569.969 26.5651 570.92 27.6133 571.636 28.9414C572.365 30.2695 572.729 31.9297 572.729 33.9219V54H565.933V49.8789H565.698C565.269 50.7122 564.663 51.4935 563.882 52.2227C563.114 52.9388 562.144 53.5182 560.972 53.9609C559.813 54.3906 558.452 54.6055 556.89 54.6055ZM558.726 49.4102C560.145 49.4102 561.375 49.1302 562.417 48.5703C563.459 47.9974 564.259 47.2422 564.819 46.3047C565.392 45.3672 565.679 44.3451 565.679 43.2383V39.7031C565.457 39.8854 565.08 40.0547 564.546 40.2109C564.025 40.3672 563.439 40.5039 562.788 40.6211C562.137 40.7383 561.493 40.8424 560.854 40.9336C560.216 41.0247 559.663 41.1029 559.194 41.168C558.14 41.3112 557.196 41.5456 556.362 41.8711C555.529 42.1966 554.871 42.6523 554.39 43.2383C553.908 43.8112 553.667 44.5534 553.667 45.4648C553.667 46.7669 554.142 47.75 555.093 48.4141C556.043 49.0781 557.254 49.4102 558.726 49.4102ZM586.909 36.4219V54H579.839V24H586.597V29.0977H586.948C587.638 27.418 588.739 26.0833 590.249 25.0937C591.772 24.1042 593.654 23.6094 595.894 23.6094C597.964 23.6094 599.767 24.0521 601.304 24.9375C602.853 25.8229 604.051 27.1055 604.897 28.7852C605.757 30.4648 606.18 32.5026 606.167 34.8984V54H599.097V35.9922C599.097 33.987 598.576 32.418 597.534 31.2852C596.506 30.1523 595.08 29.5859 593.257 29.5859C592.02 29.5859 590.92 29.8594 589.956 30.4062C589.006 30.9401 588.257 31.7148 587.71 32.7305C587.176 33.7461 586.909 34.9766 586.909 36.4219ZM628.335 24V29.4687H611.089V24H628.335ZM615.347 16.8125H622.417V44.9766C622.417 45.9271 622.56 46.6563 622.847 47.1641C623.146 47.6589 623.537 47.9974 624.019 48.1797C624.5 48.362 625.034 48.4531 625.62 48.4531C626.063 48.4531 626.466 48.4206 626.831 48.3555C627.209 48.2904 627.495 48.2318 627.69 48.1797L628.882 53.707C628.504 53.8372 627.964 53.9805 627.261 54.1367C626.571 54.293 625.724 54.3841 624.722 54.4102C622.951 54.4622 621.356 54.1953 619.937 53.6094C618.517 53.0104 617.391 52.0859 616.558 50.8359C615.737 49.5859 615.334 48.0234 615.347 46.1484V16.8125ZM657.529 31.9297L651.084 32.6328C650.902 31.9818 650.583 31.3698 650.127 30.7969C649.684 30.224 649.085 29.7617 648.33 29.4102C647.575 29.0586 646.65 28.8828 645.557 28.8828C644.085 28.8828 642.848 29.2018 641.846 29.8398C640.856 30.4779 640.368 31.3047 640.381 32.3203C640.368 33.1927 640.687 33.9023 641.338 34.4492C642.002 34.9961 643.096 35.4453 644.619 35.7969L649.736 36.8906C652.575 37.5026 654.684 38.4727 656.064 39.8008C657.458 41.1289 658.161 42.8672 658.174 45.0156C658.161 46.9036 657.607 48.5703 656.514 50.0156C655.433 51.4479 653.929 52.5677 652.002 53.375C650.075 54.1823 647.861 54.5859 645.361 54.5859C641.689 54.5859 638.734 53.8177 636.494 52.2812C634.255 50.7318 632.92 48.5768 632.49 45.8164L639.385 45.1523C639.697 46.5065 640.361 47.5286 641.377 48.2187C642.393 48.9089 643.714 49.2539 645.342 49.2539C647.021 49.2539 648.369 48.9089 649.385 48.2187C650.413 47.5286 650.928 46.6758 650.928 45.6602C650.928 44.8008 650.596 44.0911 649.932 43.5312C649.281 42.9714 648.265 42.5417 646.885 42.2422L641.768 41.168C638.89 40.569 636.761 39.5599 635.381 38.1406C634.001 36.7083 633.317 34.8984 633.33 32.7109C633.317 30.862 633.818 29.2604 634.834 27.9062C635.863 26.5391 637.288 25.4844 639.111 24.7422C640.947 23.987 643.063 23.6094 645.459 23.6094C648.975 23.6094 651.742 24.3581 653.76 25.8555C655.791 27.3529 657.048 29.3776 657.529 31.9297Z" fill="white"/>
</g>
<defs>
<filter id="filter0_dddddddd_11_54" x="0" y="12.0664" width="738.174" height="233.809" filterUnits="userSpaceOnUse" color-interpolation-filters="sRGB">
<feFlood flood-opacity="0" result="BackgroundImageFix"/>
<feColorMatrix in="SourceAlpha" type="matrix" values="0 0 0 0 0 0 0 0 0 0 0 0 0 0 0 0 0 0 127 0" result="hardAlpha"/>
<feOffset dy="1.99324"/>
<feGaussianBlur stdDeviation="0.797297"/>
<feColorMatrix type="matrix" values="0 0 0 0 0 0 0 0 0 0 0 0 0 0 0 0 0 0 0.0862802 0"/>
<feBlend mode="normal" in2="BackgroundImageFix" result="effect1_dropShadow_11_54"/>
<feColorMatrix in="SourceAlpha" type="matrix" values="0 0 0 0 0 0 0 0 0 0 0 0 0 0 0 0 0 0 127 0" result="hardAlpha"/>
<feOffset dy="4.5288"/>
<feGaussianBlur stdDeviation="1.81152"/>
<feColorMatrix type="matrix" values="0 0 0 0 0 0 0 0 0 0 0 0 0 0 0 0 0 0 0.125428 0"/>
<feBlend mode="normal" in2="effect1_dropShadow_11_54" result="effect2_dropShadow_11_54"/>
<feColorMatrix in="SourceAlpha" type="matrix" values="0 0 0 0 0 0 0 0 0 0 0 0 0 0 0 0 0 0 127 0" result="hardAlpha"/>
<feOffset dy="7.88218"/>
<feGaussianBlur stdDeviation="3.15287"/>
<feColorMatrix type="matrix" values="0 0 0 0 0 0 0 0 0 0 0 0 0 0 0 0 0 0 0.154478 0"/>
<feBlend mode="normal" in2="effect2_dropShadow_11_54" result="effect3_dropShadow_11_54"/>
<feColorMatrix in="SourceAlpha" type="matrix" values="0 0 0 0 0 0 0 0 0 0 0 0 0 0 0 0 0 0 127 0" result="hardAlpha"/>
<feOffset dy="12.5216"/>
<feGaussianBlur stdDeviation="5.00862"/>
<feColorMatrix type="matrix" values="0 0 0 0 0 0 0 0 0 0 0 0 0 0 0 0 0 0 0.18 0"/>
<feBlend mode="normal" in2="effect3_dropShadow_11_54" result="effect4_dropShadow_11_54"/>
<feColorMatrix in="SourceAlpha" type="matrix" values="0 0 0 0 0 0 0 0 0 0 0 0 0 0 0 0 0 0 127 0" result="hardAlpha"/>
<feOffset dy="19.3198"/>
<feGaussianBlur stdDeviation="7.72793"/>
<feColorMatrix type="matrix" values="0 0 0 0 0 0 0 0 0 0 0 0 0 0 0 0 0 0 0.205522 0"/>
<feBlend mode="normal" in2="effect4_dropShadow_11_54" result="effect5_dropShadow_11_54"/>
<feColorMatrix in="SourceAlpha" type="matrix" values="0 0 0 0 0 0 0 0 0 0 0 0 0 0 0 0 0 0 127 0" result="hardAlpha"/>
<feOffset dy="30.1471"/>
<feGaussianBlur stdDeviation="12.0588"/>
<feColorMatrix type="matrix" values="0 0 0 0 0 0 0 0 0 0 0 0 0 0 0 0 0 0 0.234572 0"/>
<feBlend mode="normal" in2="effect5_dropShadow_11_54" result="effect6_dropShadow_11_54"/>
<feColorMatrix in="SourceAlpha" type="matrix" values="0 0 0 0 0 0 0 0 0 0 0 0 0 0 0 0 0 0 127 0" result="hardAlpha"/>
<feOffset dy="50.0488"/>
<feGaussianBlur stdDeviation="20.0195"/>
<feColorMatrix type="matrix" values="0 0 0 0 0 0 0 0 0 0 0 0 0 0 0 0 0 0 0.27372 0"/>
<feBlend mode="normal" in2="effect6_dropShadow_11_54" result="effect7_dropShadow_11_54"/>
<feColorMatrix in="SourceAlpha" type="matrix" values="0 0 0 0 0 0 0 0 0 0 0 0 0 0 0 0 0 0 127 0" result="hardAlpha"/>
<feOffset dy="100"/>
<feGaussianBlur stdDeviation="40"/>
<feColorMatrix type="matrix" values="0 0 0 0 0 0 0 0 0 0 0 0 0 0 0 0 0 0 0.36 0"/>
<feBlend mode="normal" in2="effect7_dropShadow_11_54" result="effect8_dropShadow_11_54"/>
<feBlend mode="normal" in="SourceGraphic" in2="effect8_dropShadow_11_54" result="shape"/>
</filter>
<linearGradient id="paint0_linear_11_54" x1="129.07" y1="67" x2="61.0703" y2="-2" gradientUnits="userSpaceOnUse">
<stop stop-color="#FBD300"/>
<stop offset="1" stop-color="white"/>
</linearGradient>
<linearGradient id="paint1_linear_11_54" x1="610.57" y1="3.99952" x2="678.57" y2="72.9995" gradientUnits="userSpaceOnUse">
<stop stop-color="#FBD300"/>
<stop offset="1" stop-color="white"/>
</linearGradient>
</defs>
</svg>
