<svg width="631" height="246" viewBox="0 0 631 246" fill="none" xmlns="http://www.w3.org/2000/svg">
<path opacity="0.5" d="M68.0703 4V47C68.0703 58.0457 77.0246 67 88.0703 67H129.57" stroke="url(#paint0_linear_11_271)" stroke-width="5"/>
<path opacity="0.5" d="M560.57 66.9995V23.9995C560.57 12.9538 551.616 3.99952 540.57 3.99952L499.07 3.99952" stroke="url(#paint1_linear_11_271)" stroke-width="5"/>
<g filter="url(#filter0_dddddddd_11_271)">
<path d="M116.758 34C116.758 38.3099 115.951 42.0013 114.336 45.0742C112.734 48.1341 110.547 50.4779 107.773 52.1055C105.013 53.7331 101.882 54.5469 98.3789 54.5469C94.8763 54.5469 91.7383 53.7331 88.9648 52.1055C86.2044 50.4648 84.0169 48.1146 82.4023 45.0547C80.8008 41.9818 80 38.2969 80 34C80 29.6901 80.8008 26.0052 82.4023 22.9453C84.0169 19.8724 86.2044 17.5221 88.9648 15.8945C91.7383 14.2669 94.8763 13.4531 98.3789 13.4531C101.882 13.4531 105.013 14.2669 107.773 15.8945C110.547 17.5221 112.734 19.8724 114.336 22.9453C115.951 26.0052 116.758 29.6901 116.758 34ZM109.473 34C109.473 30.9661 108.997 28.4076 108.047 26.3242C107.109 24.2279 105.807 22.6458 104.141 21.5781C102.474 20.4974 100.553 19.957 98.3789 19.957C96.2044 19.957 94.2839 20.4974 92.6172 21.5781C90.9505 22.6458 89.6419 24.2279 88.6914 26.3242C87.7539 28.4076 87.2852 30.9661 87.2852 34C87.2852 37.0339 87.7539 39.599 88.6914 41.6953C89.6419 43.7786 90.9505 45.3607 92.6172 46.4414C94.2839 47.5091 96.2044 48.043 98.3789 48.043C100.553 48.043 102.474 47.5091 104.141 46.4414C105.807 45.3607 107.109 43.7786 108.047 41.6953C108.997 39.599 109.473 37.0339 109.473 34ZM142.417 41.3828V24H149.487V54H142.632V48.668H142.319C141.642 50.3477 140.529 51.7214 138.979 52.7891C137.443 53.8568 135.549 54.3906 133.296 54.3906C131.33 54.3906 129.591 53.9544 128.081 53.082C126.584 52.1966 125.412 50.9141 124.565 49.2344C123.719 47.5417 123.296 45.4974 123.296 43.1016V24H130.366V42.0078C130.366 43.9089 130.887 45.4193 131.929 46.5391C132.97 47.6589 134.338 48.2187 136.03 48.2187C137.072 48.2187 138.081 47.9648 139.058 47.457C140.034 46.9492 140.835 46.194 141.46 45.1914C142.098 44.1758 142.417 42.9062 142.417 41.3828ZM156.758 54V24H163.613V29H163.926C164.473 27.2682 165.41 25.9336 166.738 24.9961C168.079 24.0456 169.609 23.5703 171.328 23.5703C171.719 23.5703 172.155 23.5898 172.637 23.6289C173.132 23.6549 173.542 23.7005 173.867 23.7656V30.2695C173.568 30.1654 173.092 30.0742 172.441 29.9961C171.803 29.9049 171.185 29.8594 170.586 29.8594C169.297 29.8594 168.138 30.1393 167.109 30.6992C166.094 31.2461 165.293 32.0078 164.707 32.9844C164.121 33.9609 163.828 35.0872 163.828 36.3633V54H156.758ZM190.762 20.0742V14H222.676V20.0742H210.313V54H203.125V20.0742H190.762ZM225.4 54V24H232.256V29H232.568C233.115 27.2682 234.053 25.9336 235.381 24.9961C236.722 24.0456 238.252 23.5703 239.971 23.5703C240.361 23.5703 240.798 23.5898 241.279 23.6289C241.774 23.6549 242.184 23.7005 242.51 23.7656V30.2695C242.21 30.1654 241.735 30.0742 241.084 29.9961C240.446 29.9049 239.827 29.8594 239.229 29.8594C237.939 29.8594 236.781 30.1393 235.752 30.6992C234.736 31.2461 233.936 32.0078 233.35 32.9844C232.764 33.9609 232.471 35.0872 232.471 36.3633V54H225.4ZM259.253 54.5859C256.245 54.5859 253.647 53.9609 251.46 52.7109C249.285 51.4479 247.612 49.6641 246.44 47.3594C245.269 45.0417 244.683 42.3138 244.683 39.1758C244.683 36.0898 245.269 33.3815 246.44 31.0508C247.625 28.707 249.279 26.8841 251.401 25.582C253.524 24.2669 256.017 23.6094 258.882 23.6094C260.731 23.6094 262.476 23.9089 264.116 24.5078C265.77 25.0937 267.228 26.0052 268.491 27.2422C269.767 28.4792 270.77 30.0547 271.499 31.9687C272.228 33.8698 272.593 36.1354 272.593 38.7656V40.9336H248.003V36.168H265.815C265.802 34.8138 265.509 33.6094 264.937 32.5547C264.364 31.487 263.563 30.6471 262.534 30.0352C261.519 29.4232 260.334 29.1172 258.979 29.1172C257.534 29.1172 256.265 29.4687 255.171 30.1719C254.077 30.862 253.224 31.7734 252.612 32.9062C252.013 34.026 251.707 35.2565 251.694 36.5977V40.7578C251.694 42.5026 252.013 44 252.651 45.25C253.289 46.487 254.181 47.4375 255.327 48.1016C256.473 48.7526 257.814 49.0781 259.351 49.0781C260.379 49.0781 261.31 48.9349 262.144 48.6484C262.977 48.349 263.7 47.9128 264.312 47.3398C264.924 46.7669 265.386 46.0573 265.698 45.2109L272.3 45.9531C271.883 47.6979 271.089 49.2214 269.917 50.5234C268.758 51.8125 267.274 52.8151 265.464 53.5312C263.654 54.2344 261.584 54.5859 259.253 54.5859ZM285.645 36.4219V54H278.574V24H285.332V29.0977H285.684C286.374 27.418 287.474 26.0833 288.984 25.0937C290.508 24.1042 292.389 23.6094 294.629 23.6094C296.699 23.6094 298.503 24.0521 300.039 24.9375C301.589 25.8229 302.786 27.1055 303.633 28.7852C304.492 30.4648 304.915 32.5026 304.902 34.8984V54H297.832V35.9922C297.832 33.987 297.311 32.418 296.27 31.2852C295.241 30.1523 293.815 29.5859 291.992 29.5859C290.755 29.5859 289.655 29.8594 288.691 30.4062C287.741 30.9401 286.992 31.7148 286.445 32.7305C285.911 33.7461 285.645 34.9766 285.645 36.4219ZM323.223 54.5273C320.866 54.5273 318.757 53.9219 316.895 52.7109C315.033 51.5 313.561 49.7422 312.48 47.4375C311.4 45.1328 310.859 42.3333 310.859 39.0391C310.859 35.7057 311.406 32.8932 312.5 30.6016C313.607 28.2969 315.098 26.5586 316.973 25.3867C318.848 24.2018 320.938 23.6094 323.242 23.6094C325 23.6094 326.445 23.9089 327.578 24.5078C328.711 25.0937 329.609 25.8034 330.273 26.6367C330.938 27.457 331.452 28.2318 331.816 28.9609H332.109V14H339.199V54H332.246V49.2734H331.816C331.452 50.0026 330.924 50.7773 330.234 51.5977C329.544 52.4049 328.633 53.0951 327.5 53.668C326.367 54.2409 324.941 54.5273 323.223 54.5273ZM325.195 48.7266C326.693 48.7266 327.969 48.3229 329.023 47.5156C330.078 46.6953 330.879 45.556 331.426 44.0977C331.973 42.6393 332.246 40.9401 332.246 39C332.246 37.0599 331.973 35.3737 331.426 33.9414C330.892 32.5091 330.098 31.3958 329.043 30.6016C328.001 29.8073 326.719 29.4102 325.195 29.4102C323.62 29.4102 322.305 29.8203 321.25 30.6406C320.195 31.4609 319.401 32.5937 318.867 34.0391C318.333 35.4844 318.066 37.138 318.066 39C318.066 40.875 318.333 42.5482 318.867 44.0195C319.414 45.4779 320.215 46.6302 321.27 47.4766C322.337 48.3099 323.646 48.7266 325.195 48.7266ZM351.128 65.25C350.164 65.25 349.272 65.1719 348.452 65.0156C347.645 64.8724 347 64.7031 346.519 64.5078L348.159 59C349.188 59.2995 350.106 59.4427 350.913 59.4297C351.72 59.4167 352.43 59.1628 353.042 58.668C353.667 58.1862 354.194 57.3789 354.624 56.2461L355.229 54.625L344.351 24H351.851L358.765 46.6562H359.077L366.011 24H373.53L361.519 57.6328C360.959 59.2214 360.216 60.582 359.292 61.7148C358.368 62.8607 357.235 63.7331 355.894 64.332C354.565 64.944 352.977 65.25 351.128 65.25ZM392.065 65.25V24H399.019V28.9609H399.429C399.793 28.2318 400.308 27.457 400.972 26.6367C401.636 25.8034 402.534 25.0937 403.667 24.5078C404.8 23.9089 406.245 23.6094 408.003 23.6094C410.321 23.6094 412.41 24.2018 414.272 25.3867C416.147 26.5586 417.632 28.2969 418.726 30.6016C419.832 32.8932 420.386 35.7057 420.386 39.0391C420.386 42.3333 419.845 45.1328 418.765 47.4375C417.684 49.7422 416.213 51.5 414.351 52.7109C412.489 53.9219 410.379 54.5273 408.022 54.5273C406.304 54.5273 404.878 54.2409 403.745 53.668C402.612 53.0951 401.701 52.4049 401.011 51.5977C400.334 50.7773 399.806 50.0026 399.429 49.2734H399.136V65.25H392.065ZM398.999 39C398.999 40.9401 399.272 42.6393 399.819 44.0977C400.379 45.556 401.18 46.6953 402.222 47.5156C403.276 48.3229 404.552 48.7266 406.05 48.7266C407.612 48.7266 408.921 48.3099 409.976 47.4766C411.03 46.6302 411.825 45.4779 412.358 44.0195C412.905 42.5482 413.179 40.875 413.179 39C413.179 37.138 412.912 35.4844 412.378 34.0391C411.844 32.5937 411.05 31.4609 409.995 30.6406C408.94 29.8203 407.625 29.4102 406.05 29.4102C404.539 29.4102 403.257 29.8073 402.202 30.6016C401.147 31.3958 400.347 32.5091 399.8 33.9414C399.266 35.3737 398.999 37.0599 398.999 39ZM433.511 14V54H426.44V14H433.511ZM449.414 54.6055C447.513 54.6055 445.801 54.2669 444.277 53.5898C442.767 52.8997 441.569 51.8841 440.684 50.543C439.811 49.2018 439.375 47.5482 439.375 45.582C439.375 43.8893 439.688 42.4896 440.313 41.3828C440.938 40.276 441.79 39.3906 442.871 38.7266C443.952 38.0625 445.169 37.5612 446.523 37.2227C447.891 36.8711 449.303 36.6172 450.762 36.4609C452.52 36.2786 453.945 36.1159 455.039 35.9727C456.133 35.8164 456.927 35.582 457.422 35.2695C457.93 34.944 458.184 34.4427 458.184 33.7656V33.6484C458.184 32.1771 457.747 31.0378 456.875 30.2305C456.003 29.4232 454.746 29.0195 453.105 29.0195C451.374 29.0195 450 29.3971 448.984 30.1523C447.982 30.9076 447.305 31.7995 446.953 32.8281L440.352 31.8906C440.872 30.0677 441.732 28.5443 442.93 27.3203C444.128 26.0833 445.592 25.1589 447.324 24.5469C449.056 23.9219 450.97 23.6094 453.066 23.6094C454.512 23.6094 455.951 23.7786 457.383 24.1172C458.815 24.4557 460.124 25.0156 461.309 25.7969C462.493 26.5651 463.444 27.6133 464.16 28.9414C464.889 30.2695 465.254 31.9297 465.254 33.9219V54H458.457V49.8789H458.223C457.793 50.7122 457.188 51.4935 456.406 52.2227C455.638 52.9388 454.668 53.5182 453.496 53.9609C452.337 54.3906 450.977 54.6055 449.414 54.6055ZM451.25 49.4102C452.669 49.4102 453.9 49.1302 454.941 48.5703C455.983 47.9974 456.784 47.2422 457.344 46.3047C457.917 45.3672 458.203 44.3451 458.203 43.2383V39.7031C457.982 39.8854 457.604 40.0547 457.07 40.2109C456.549 40.3672 455.964 40.5039 455.313 40.6211C454.661 40.7383 454.017 40.8424 453.379 40.9336C452.741 41.0247 452.188 41.1029 451.719 41.168C450.664 41.3112 449.72 41.5456 448.887 41.8711C448.053 42.1966 447.396 42.6523 446.914 43.2383C446.432 43.8112 446.191 44.5534 446.191 45.4648C446.191 46.7669 446.667 47.75 447.617 48.4141C448.568 49.0781 449.779 49.4102 451.25 49.4102ZM479.434 36.4219V54H472.363V24H479.121V29.0977H479.473C480.163 27.418 481.263 26.0833 482.773 25.0937C484.297 24.1042 486.178 23.6094 488.418 23.6094C490.488 23.6094 492.292 24.0521 493.828 24.9375C495.378 25.8229 496.576 27.1055 497.422 28.7852C498.281 30.4648 498.704 32.5026 498.691 34.8984V54H491.621V35.9922C491.621 33.987 491.1 32.418 490.059 31.2852C489.03 30.1523 487.604 29.5859 485.781 29.5859C484.544 29.5859 483.444 29.8594 482.48 30.4062C481.53 30.9401 480.781 31.7148 480.234 32.7305C479.701 33.7461 479.434 34.9766 479.434 36.4219ZM520.859 24V29.4687H503.613V24H520.859ZM507.871 16.8125H514.941V44.9766C514.941 45.9271 515.085 46.6563 515.371 47.1641C515.671 47.6589 516.061 47.9974 516.543 48.1797C517.025 48.362 517.559 48.4531 518.145 48.4531C518.587 48.4531 518.991 48.4206 519.355 48.3555C519.733 48.2904 520.02 48.2318 520.215 48.1797L521.406 53.707C521.029 53.8372 520.488 53.9805 519.785 54.1367C519.095 54.293 518.249 54.3841 517.246 54.4102C515.475 54.4622 513.88 54.1953 512.461 53.6094C511.042 53.0104 509.915 52.0859 509.082 50.8359C508.262 49.5859 507.858 48.0234 507.871 46.1484V16.8125ZM550.054 31.9297L543.608 32.6328C543.426 31.9818 543.107 31.3698 542.651 30.7969C542.209 30.224 541.61 29.7617 540.854 29.4102C540.099 29.0586 539.175 28.8828 538.081 28.8828C536.61 28.8828 535.373 29.2018 534.37 29.8398C533.381 30.4779 532.892 31.3047 532.905 32.3203C532.892 33.1927 533.211 33.9023 533.862 34.4492C534.526 34.9961 535.62 35.4453 537.144 35.7969L542.261 36.8906C545.099 37.5026 547.209 38.4727 548.589 39.8008C549.982 41.1289 550.685 42.8672 550.698 45.0156C550.685 46.9036 550.132 48.5703 549.038 50.0156C547.957 51.4479 546.453 52.5677 544.526 53.375C542.599 54.1823 540.386 54.5859 537.886 54.5859C534.214 54.5859 531.258 53.8177 529.019 52.2812C526.779 50.7318 525.444 48.5768 525.015 45.8164L531.909 45.1523C532.222 46.5065 532.886 47.5286 533.901 48.2187C534.917 48.9089 536.239 49.2539 537.866 49.2539C539.546 49.2539 540.894 48.9089 541.909 48.2187C542.938 47.5286 543.452 46.6758 543.452 45.6602C543.452 44.8008 543.12 44.0911 542.456 43.5312C541.805 42.9714 540.789 42.5417 539.409 42.2422L534.292 41.168C531.414 40.569 529.285 39.5599 527.905 38.1406C526.525 36.7083 525.841 34.8984 525.854 32.7109C525.841 30.862 526.343 29.2604 527.358 27.9062C528.387 26.5391 529.813 25.4844 531.636 24.7422C533.472 23.987 535.588 23.6094 537.983 23.6094C541.499 23.6094 544.266 24.3581 546.284 25.8555C548.315 27.3529 549.572 29.3776 550.054 31.9297Z" fill="white"/>
</g>
<defs>
<filter id="filter0_dddddddd_11_271" x="0" y="13.4531" width="630.698" height="231.797" filterUnits="userSpaceOnUse" color-interpolation-filters="sRGB">
<feFlood flood-opacity="0" result="BackgroundImageFix"/>
<feColorMatrix in="SourceAlpha" type="matrix" values="0 0 0 0 0 0 0 0 0 0 0 0 0 0 0 0 0 0 127 0" result="hardAlpha"/>
<feOffset dy="1.99324"/>
<feGaussianBlur stdDeviation="0.797297"/>
<feColorMatrix type="matrix" values="0 0 0 0 0 0 0 0 0 0 0 0 0 0 0 0 0 0 0.0862802 0"/>
<feBlend mode="normal" in2="BackgroundImageFix" result="effect1_dropShadow_11_271"/>
<feColorMatrix in="SourceAlpha" type="matrix" values="0 0 0 0 0 0 0 0 0 0 0 0 0 0 0 0 0 0 127 0" result="hardAlpha"/>
<feOffset dy="4.5288"/>
<feGaussianBlur stdDeviation="1.81152"/>
<feColorMatrix type="matrix" values="0 0 0 0 0 0 0 0 0 0 0 0 0 0 0 0 0 0 0.125428 0"/>
<feBlend mode="normal" in2="effect1_dropShadow_11_271" result="effect2_dropShadow_11_271"/>
<feColorMatrix in="SourceAlpha" type="matrix" values="0 0 0 0 0 0 0 0 0 0 0 0 0 0 0 0 0 0 127 0" result="hardAlpha"/>
<feOffset dy="7.88218"/>
<feGaussianBlur stdDeviation="3.15287"/>
<feColorMatrix type="matrix" values="0 0 0 0 0 0 0 0 0 0 0 0 0 0 0 0 0 0 0.154478 0"/>
<feBlend mode="normal" in2="effect2_dropShadow_11_271" result="effect3_dropShadow_11_271"/>
<feColorMatrix in="SourceAlpha" type="matrix" values="0 0 0 0 0 0 0 0 0 0 0 0 0 0 0 0 0 0 127 0" result="hardAlpha"/>
<feOffset dy="12.5216"/>
<feGaussianBlur stdDeviation="5.00862"/>
<feColorMatrix type="matrix" values="0 0 0 0 0 0 0 0 0 0 0 0 0 0 0 0 0 0 0.18 0"/>
<feBlend mode="normal" in2="effect3_dropShadow_11_271" result="effect4_dropShadow_11_271"/>
<feColorMatrix in="SourceAlpha" type="matrix" values="0 0 0 0 0 0 0 0 0 0 0 0 0 0 0 0 0 0 127 0" result="hardAlpha"/>
<feOffset dy="19.3198"/>
<feGaussianBlur stdDeviation="7.72793"/>
<feColorMatrix type="matrix" values="0 0 0 0 0 0 0 0 0 0 0 0 0 0 0 0 0 0 0.205522 0"/>
<feBlend mode="normal" in2="effect4_dropShadow_11_271" result="effect5_dropShadow_11_271"/>
<feColorMatrix in="SourceAlpha" type="matrix" values="0 0 0 0 0 0 0 0 0 0 0 0 0 0 0 0 0 0 127 0" result="hardAlpha"/>
<feOffset dy="30.1471"/>
<feGaussianBlur stdDeviation="12.0588"/>
<feColorMatrix type="matrix" values="0 0 0 0 0 0 0 0 0 0 0 0 0 0 0 0 0 0 0.234572 0"/>
<feBlend mode="normal" in2="effect5_dropShadow_11_271" result="effect6_dropShadow_11_271"/>
<feColorMatrix in="SourceAlpha" type="matrix" values="0 0 0 0 0 0 0 0 0 0 0 0 0 0 0 0 0 0 127 0" result="hardAlpha"/>
<feOffset dy="50.0488"/>
<feGaussianBlur stdDeviation="20.0195"/>
<feColorMatrix type="matrix" values="0 0 0 0 0 0 0 0 0 0 0 0 0 0 0 0 0 0 0.27372 0"/>
<feBlend mode="normal" in2="effect6_dropShadow_11_271" result="effect7_dropShadow_11_271"/>
<feColorMatrix in="SourceAlpha" type="matrix" values="0 0 0 0 0 0 0 0 0 0 0 0 0 0 0 0 0 0 127 0" result="hardAlpha"/>
<feOffset dy="100"/>
<feGaussianBlur stdDeviation="40"/>
<feColorMatrix type="matrix" values="0 0 0 0 0 0 0 0 0 0 0 0 0 0 0 0 0 0 0.36 0"/>
<feBlend mode="normal" in2="effect7_dropShadow_11_271" result="effect8_dropShadow_11_271"/>
<feBlend mode="normal" in="SourceGraphic" in2="effect8_dropShadow_11_271" result="shape"/>
</filter>
<linearGradient id="paint0_linear_11_271" x1="129.07" y1="67" x2="61.0703" y2="-2" gradientUnits="userSpaceOnUse">
<stop stop-color="#FBD300"/>
<stop offset="1" stop-color="white"/>
</linearGradient>
<linearGradient id="paint1_linear_11_271" x1="499.57" y1="3.99952" x2="567.57" y2="72.9995" gradientUnits="userSpaceOnUse">
<stop stop-color="#FBD300"/>
<stop offset="1" stop-color="white"/>
</linearGradient>
</defs>
</svg>
