<svg width="624" height="235" viewBox="0 0 624 235" fill="none" xmlns="http://www.w3.org/2000/svg">
<path opacity="0.5" d="M68.0703 4V47C68.0703 58.0457 77.0246 67 88.0703 67H129.57" stroke="url(#paint0_linear_11_58)" stroke-width="5"/>
<path opacity="0.5" d="M558.57 66.9995V23.9995C558.57 12.9538 549.615 3.99952 538.57 3.99952L497.07 3.99952" stroke="url(#paint1_linear_11_58)" stroke-width="5"/>
<g filter="url(#filter0_dddddddd_11_58)">
<path d="M115.254 27.4961H107.949C107.741 26.2982 107.357 25.237 106.797 24.3125C106.237 23.375 105.54 22.5807 104.707 21.9297C103.874 21.2786 102.923 20.7904 101.855 20.4648C100.801 20.1263 99.6615 19.957 98.4375 19.957C96.263 19.957 94.3359 20.5039 92.6563 21.5977C90.9766 22.6784 89.6615 24.2669 88.7109 26.3633C87.7604 28.4466 87.2852 30.9922 87.2852 34C87.2852 37.0599 87.7604 39.638 88.7109 41.7344C89.6745 43.8177 90.9896 45.3932 92.6563 46.4609C94.3359 47.5156 96.2565 48.043 98.418 48.043C99.6159 48.043 100.736 47.8867 101.777 47.5742C102.832 47.2487 103.776 46.7734 104.609 46.1484C105.456 45.5234 106.165 44.7552 106.738 43.8437C107.324 42.9323 107.728 41.8906 107.949 40.7187L115.254 40.7578C114.98 42.6589 114.388 44.4427 113.477 46.1094C112.578 47.776 111.4 49.2474 109.941 50.5234C108.483 51.7865 106.777 52.776 104.824 53.4922C102.871 54.1953 100.703 54.5469 98.3203 54.5469C94.8047 54.5469 91.6667 53.7331 88.9063 52.1055C86.1458 50.4779 83.9714 48.1276 82.3828 45.0547C80.7943 41.9818 80 38.2969 80 34C80 29.6901 80.8008 26.0052 82.4023 22.9453C84.0039 19.8724 86.1849 17.5221 88.9453 15.8945C91.7057 14.2669 94.8307 13.4531 98.3203 13.4531C100.547 13.4531 102.617 13.7656 104.531 14.3906C106.445 15.0156 108.151 15.9336 109.648 17.1445C111.146 18.3424 112.376 19.8138 113.34 21.5586C114.316 23.2904 114.954 25.2695 115.254 27.4961ZM140.698 41.3828V24H147.769V54H140.913V48.668H140.601C139.924 50.3477 138.81 51.7214 137.261 52.7891C135.724 53.8568 133.83 54.3906 131.577 54.3906C129.611 54.3906 127.873 53.9544 126.362 53.082C124.865 52.1966 123.693 50.9141 122.847 49.2344C122 47.5417 121.577 45.4974 121.577 43.1016V24H128.647V42.0078C128.647 43.9089 129.168 45.4193 130.21 46.5391C131.252 47.6589 132.619 48.2187 134.312 48.2187C135.353 48.2187 136.362 47.9648 137.339 47.457C138.315 46.9492 139.116 46.194 139.741 45.1914C140.379 44.1758 140.698 42.9062 140.698 41.3828ZM178.75 31.9297L172.305 32.6328C172.122 31.9818 171.803 31.3698 171.348 30.7969C170.905 30.224 170.306 29.7617 169.551 29.4102C168.796 29.0586 167.871 28.8828 166.777 28.8828C165.306 28.8828 164.069 29.2018 163.066 29.8398C162.077 30.4779 161.589 31.3047 161.602 32.3203C161.589 33.1927 161.908 33.9023 162.559 34.4492C163.223 34.9961 164.316 35.4453 165.84 35.7969L170.957 36.8906C173.796 37.5026 175.905 38.4727 177.285 39.8008C178.678 41.1289 179.382 42.8672 179.395 45.0156C179.382 46.9036 178.828 48.5703 177.734 50.0156C176.654 51.4479 175.15 52.5677 173.223 53.375C171.296 54.1823 169.082 54.5859 166.582 54.5859C162.91 54.5859 159.954 53.8177 157.715 52.2812C155.475 50.7318 154.141 48.5768 153.711 45.8164L160.605 45.1523C160.918 46.5065 161.582 47.5286 162.598 48.2187C163.613 48.9089 164.935 49.2539 166.563 49.2539C168.242 49.2539 169.59 48.9089 170.605 48.2187C171.634 47.5286 172.148 46.6758 172.148 45.6602C172.148 44.8008 171.816 44.0911 171.152 43.5312C170.501 42.9714 169.486 42.5417 168.105 42.2422L162.988 41.168C160.111 40.569 157.982 39.5599 156.602 38.1406C155.221 36.7083 154.538 34.8984 154.551 32.7109C154.538 30.862 155.039 29.2604 156.055 27.9062C157.083 26.5391 158.509 25.4844 160.332 24.7422C162.168 23.987 164.284 23.6094 166.68 23.6094C170.195 23.6094 172.962 24.3581 174.98 25.8555C177.012 27.3529 178.268 29.3776 178.75 31.9297ZM200.205 24V29.4687H182.959V24H200.205ZM187.217 16.8125H194.287V44.9766C194.287 45.9271 194.43 46.6563 194.717 47.1641C195.016 47.6589 195.407 47.9974 195.889 48.1797C196.37 48.362 196.904 48.4531 197.49 48.4531C197.933 48.4531 198.337 48.4206 198.701 48.3555C199.079 48.2904 199.365 48.2318 199.561 48.1797L200.752 53.707C200.374 53.8372 199.834 53.9805 199.131 54.1367C198.441 54.293 197.594 54.3841 196.592 54.4102C194.821 54.4622 193.226 54.1953 191.807 53.6094C190.387 53.0104 189.261 52.0859 188.428 50.8359C187.607 49.5859 187.204 48.0234 187.217 46.1484V16.8125ZM218.882 54.5859C215.952 54.5859 213.413 53.9414 211.265 52.6523C209.116 51.3633 207.45 49.5599 206.265 47.2422C205.093 44.9245 204.507 42.2161 204.507 39.1172C204.507 36.0182 205.093 33.3034 206.265 30.9727C207.45 28.6419 209.116 26.832 211.265 25.543C213.413 24.2539 215.952 23.6094 218.882 23.6094C221.812 23.6094 224.351 24.2539 226.499 25.543C228.647 26.832 230.308 28.6419 231.479 30.9727C232.664 33.3034 233.257 36.0182 233.257 39.1172C233.257 42.2161 232.664 44.9245 231.479 47.2422C230.308 49.5599 228.647 51.3633 226.499 52.6523C224.351 53.9414 221.812 54.5859 218.882 54.5859ZM218.921 48.9219C220.509 48.9219 221.838 48.4857 222.905 47.6133C223.973 46.7279 224.767 45.543 225.288 44.0586C225.822 42.5742 226.089 40.9206 226.089 39.0977C226.089 37.2617 225.822 35.6016 225.288 34.1172C224.767 32.6198 223.973 31.4284 222.905 30.543C221.838 29.6576 220.509 29.2148 218.921 29.2148C217.293 29.2148 215.939 29.6576 214.858 30.543C213.791 31.4284 212.99 32.6198 212.456 34.1172C211.935 35.6016 211.675 37.2617 211.675 39.0977C211.675 40.9206 211.935 42.5742 212.456 44.0586C212.99 45.543 213.791 46.7279 214.858 47.6133C215.939 48.4857 217.293 48.9219 218.921 48.9219ZM239.258 54V24H246.016V29.0977H246.367C246.992 27.3789 248.027 26.0378 249.473 25.0742C250.918 24.0977 252.643 23.6094 254.648 23.6094C256.68 23.6094 258.392 24.1042 259.785 25.0937C261.191 26.0703 262.181 27.4049 262.754 29.0977H263.066C263.73 27.431 264.85 26.1029 266.426 25.1133C268.014 24.1107 269.896 23.6094 272.07 23.6094C274.831 23.6094 277.083 24.4818 278.828 26.2266C280.573 27.9714 281.445 30.5169 281.445 33.8633V54H274.355V34.957C274.355 33.0951 273.861 31.7344 272.871 30.875C271.882 30.0026 270.671 29.5664 269.238 29.5664C267.533 29.5664 266.198 30.1003 265.234 31.168C264.284 32.2227 263.809 33.5964 263.809 35.2891V54H256.875V34.6641C256.875 33.1146 256.406 31.8776 255.469 30.9531C254.544 30.0286 253.333 29.5664 251.836 29.5664C250.82 29.5664 249.896 29.8268 249.063 30.3477C248.229 30.8555 247.565 31.5781 247.07 32.5156C246.576 33.4401 246.328 34.5208 246.328 35.7578V54H239.258ZM301.899 54.5859C298.892 54.5859 296.294 53.9609 294.106 52.7109C291.932 51.4479 290.259 49.6641 289.087 47.3594C287.915 45.0417 287.329 42.3138 287.329 39.1758C287.329 36.0898 287.915 33.3815 289.087 31.0508C290.272 28.707 291.925 26.8841 294.048 25.582C296.17 24.2669 298.664 23.6094 301.528 23.6094C303.377 23.6094 305.122 23.9089 306.763 24.5078C308.416 25.0937 309.875 26.0052 311.138 27.2422C312.414 28.4792 313.416 30.0547 314.146 31.9687C314.875 33.8698 315.239 36.1354 315.239 38.7656V40.9336H290.649V36.168H308.462C308.449 34.8138 308.156 33.6094 307.583 32.5547C307.01 31.487 306.209 30.6471 305.181 30.0352C304.165 29.4232 302.98 29.1172 301.626 29.1172C300.181 29.1172 298.911 29.4687 297.817 30.1719C296.724 30.862 295.871 31.7734 295.259 32.9062C294.66 34.026 294.354 35.2565 294.341 36.5977V40.7578C294.341 42.5026 294.66 44 295.298 45.25C295.936 46.487 296.828 47.4375 297.974 48.1016C299.119 48.7526 300.461 49.0781 301.997 49.0781C303.026 49.0781 303.957 48.9349 304.79 48.6484C305.623 48.349 306.346 47.9128 306.958 47.3398C307.57 46.7669 308.032 46.0573 308.345 45.2109L314.946 45.9531C314.53 47.6979 313.735 49.2214 312.563 50.5234C311.405 51.8125 309.92 52.8151 308.11 53.5312C306.3 54.2344 304.23 54.5859 301.899 54.5859ZM321.221 54V24H328.076V29H328.389C328.936 27.2682 329.873 25.9336 331.201 24.9961C332.542 24.0456 334.072 23.5703 335.791 23.5703C336.182 23.5703 336.618 23.5898 337.1 23.6289C337.594 23.6549 338.005 23.7005 338.33 23.7656V30.2695C338.031 30.1654 337.555 30.0742 336.904 29.9961C336.266 29.9049 335.648 29.8594 335.049 29.8594C333.76 29.8594 332.601 30.1393 331.572 30.6992C330.557 31.2461 329.756 32.0078 329.17 32.9844C328.584 33.9609 328.291 35.0872 328.291 36.3633V54H321.221ZM356.982 54V14H371.982C375.055 14 377.633 14.5339 379.717 15.6016C381.813 16.6693 383.395 18.1667 384.463 20.0937C385.544 22.0078 386.084 24.2409 386.084 26.793C386.084 29.3581 385.537 31.5846 384.443 33.4727C383.363 35.3477 381.768 36.7995 379.658 37.8281C377.549 38.8437 374.958 39.3516 371.885 39.3516H361.201V33.3359H370.908C372.705 33.3359 374.176 33.0885 375.322 32.5937C376.468 32.0859 377.314 31.3503 377.861 30.3867C378.421 29.4102 378.701 28.2122 378.701 26.793C378.701 25.3737 378.421 24.1628 377.861 23.1602C377.301 22.1445 376.449 21.3763 375.303 20.8555C374.157 20.3216 372.679 20.0547 370.869 20.0547H364.229V54H356.982ZM377.646 35.875L387.549 54H379.463L369.736 35.875H377.646ZM405.293 54.5859C402.285 54.5859 399.688 53.9609 397.5 52.7109C395.326 51.4479 393.652 49.6641 392.48 47.3594C391.309 45.0417 390.723 42.3138 390.723 39.1758C390.723 36.0898 391.309 33.3815 392.48 31.0508C393.665 28.707 395.319 26.8841 397.441 25.582C399.564 24.2669 402.057 23.6094 404.922 23.6094C406.771 23.6094 408.516 23.9089 410.156 24.5078C411.81 25.0937 413.268 26.0052 414.531 27.2422C415.807 28.4792 416.81 30.0547 417.539 31.9687C418.268 33.8698 418.633 36.1354 418.633 38.7656V40.9336H394.043V36.168H411.855C411.842 34.8138 411.549 33.6094 410.977 32.5547C410.404 31.487 409.603 30.6471 408.574 30.0352C407.559 29.4232 406.374 29.1172 405.02 29.1172C403.574 29.1172 402.305 29.4687 401.211 30.1719C400.117 30.862 399.264 31.7734 398.652 32.9062C398.053 34.026 397.747 35.2565 397.734 36.5977V40.7578C397.734 42.5026 398.053 44 398.691 45.25C399.329 46.487 400.221 47.4375 401.367 48.1016C402.513 48.7526 403.854 49.0781 405.391 49.0781C406.419 49.0781 407.35 48.9349 408.184 48.6484C409.017 48.349 409.74 47.9128 410.352 47.3398C410.964 46.7669 411.426 46.0573 411.738 45.2109L418.34 45.9531C417.923 47.6979 417.129 49.2214 415.957 50.5234C414.798 51.8125 413.314 52.8151 411.504 53.5312C409.694 54.2344 407.624 54.5859 405.293 54.5859ZM450.552 24L439.868 54H432.056L421.372 24H428.911L435.806 46.2852H436.118L443.032 24H450.552ZM455.444 54V24H462.515V54H455.444ZM458.999 19.7422C457.879 19.7422 456.916 19.3711 456.108 18.6289C455.301 17.8737 454.897 16.9687 454.897 15.9141C454.897 14.8464 455.301 13.9414 456.108 13.1992C456.916 12.444 457.879 12.0664 458.999 12.0664C460.132 12.0664 461.095 12.444 461.89 13.1992C462.697 13.9414 463.101 14.8464 463.101 15.9141C463.101 16.9687 462.697 17.8737 461.89 18.6289C461.095 19.3711 460.132 19.7422 458.999 19.7422ZM483.066 54.5859C480.059 54.5859 477.461 53.9609 475.273 52.7109C473.099 51.4479 471.426 49.6641 470.254 47.3594C469.082 45.0417 468.496 42.3138 468.496 39.1758C468.496 36.0898 469.082 33.3815 470.254 31.0508C471.439 28.707 473.092 26.8841 475.215 25.582C477.337 24.2669 479.831 23.6094 482.695 23.6094C484.544 23.6094 486.289 23.9089 487.93 24.5078C489.583 25.0937 491.042 26.0052 492.305 27.2422C493.581 28.4792 494.583 30.0547 495.313 31.9687C496.042 33.8698 496.406 36.1354 496.406 38.7656V40.9336H471.816V36.168H489.629C489.616 34.8138 489.323 33.6094 488.75 32.5547C488.177 31.487 487.376 30.6471 486.348 30.0352C485.332 29.4232 484.147 29.1172 482.793 29.1172C481.348 29.1172 480.078 29.4687 478.984 30.1719C477.891 30.862 477.038 31.7734 476.426 32.9062C475.827 34.026 475.521 35.2565 475.508 36.5977V40.7578C475.508 42.5026 475.827 44 476.465 45.25C477.103 46.487 477.995 47.4375 479.141 48.1016C480.286 48.7526 481.628 49.0781 483.164 49.0781C484.193 49.0781 485.124 48.9349 485.957 48.6484C486.79 48.349 487.513 47.9128 488.125 47.3398C488.737 46.7669 489.199 46.0573 489.512 45.2109L496.113 45.9531C495.697 47.6979 494.902 49.2214 493.73 50.5234C492.572 51.8125 491.087 52.8151 489.277 53.5312C487.467 54.2344 485.397 54.5859 483.066 54.5859ZM508.418 54L499.941 24H507.148L512.422 45.0937H512.695L518.086 24H525.215L530.605 44.9766H530.898L536.094 24H543.32L534.824 54H527.461L521.836 33.7266H521.426L515.801 54H508.418Z" fill="white"/>
</g>
<defs>
<filter id="filter0_dddddddd_11_58" x="0" y="12.0664" width="623.32" height="222.52" filterUnits="userSpaceOnUse" color-interpolation-filters="sRGB">
<feFlood flood-opacity="0" result="BackgroundImageFix"/>
<feColorMatrix in="SourceAlpha" type="matrix" values="0 0 0 0 0 0 0 0 0 0 0 0 0 0 0 0 0 0 127 0" result="hardAlpha"/>
<feOffset dy="1.99324"/>
<feGaussianBlur stdDeviation="0.797297"/>
<feColorMatrix type="matrix" values="0 0 0 0 0 0 0 0 0 0 0 0 0 0 0 0 0 0 0.0862802 0"/>
<feBlend mode="normal" in2="BackgroundImageFix" result="effect1_dropShadow_11_58"/>
<feColorMatrix in="SourceAlpha" type="matrix" values="0 0 0 0 0 0 0 0 0 0 0 0 0 0 0 0 0 0 127 0" result="hardAlpha"/>
<feOffset dy="4.5288"/>
<feGaussianBlur stdDeviation="1.81152"/>
<feColorMatrix type="matrix" values="0 0 0 0 0 0 0 0 0 0 0 0 0 0 0 0 0 0 0.125428 0"/>
<feBlend mode="normal" in2="effect1_dropShadow_11_58" result="effect2_dropShadow_11_58"/>
<feColorMatrix in="SourceAlpha" type="matrix" values="0 0 0 0 0 0 0 0 0 0 0 0 0 0 0 0 0 0 127 0" result="hardAlpha"/>
<feOffset dy="7.88218"/>
<feGaussianBlur stdDeviation="3.15287"/>
<feColorMatrix type="matrix" values="0 0 0 0 0 0 0 0 0 0 0 0 0 0 0 0 0 0 0.154478 0"/>
<feBlend mode="normal" in2="effect2_dropShadow_11_58" result="effect3_dropShadow_11_58"/>
<feColorMatrix in="SourceAlpha" type="matrix" values="0 0 0 0 0 0 0 0 0 0 0 0 0 0 0 0 0 0 127 0" result="hardAlpha"/>
<feOffset dy="12.5216"/>
<feGaussianBlur stdDeviation="5.00862"/>
<feColorMatrix type="matrix" values="0 0 0 0 0 0 0 0 0 0 0 0 0 0 0 0 0 0 0.18 0"/>
<feBlend mode="normal" in2="effect3_dropShadow_11_58" result="effect4_dropShadow_11_58"/>
<feColorMatrix in="SourceAlpha" type="matrix" values="0 0 0 0 0 0 0 0 0 0 0 0 0 0 0 0 0 0 127 0" result="hardAlpha"/>
<feOffset dy="19.3198"/>
<feGaussianBlur stdDeviation="7.72793"/>
<feColorMatrix type="matrix" values="0 0 0 0 0 0 0 0 0 0 0 0 0 0 0 0 0 0 0.205522 0"/>
<feBlend mode="normal" in2="effect4_dropShadow_11_58" result="effect5_dropShadow_11_58"/>
<feColorMatrix in="SourceAlpha" type="matrix" values="0 0 0 0 0 0 0 0 0 0 0 0 0 0 0 0 0 0 127 0" result="hardAlpha"/>
<feOffset dy="30.1471"/>
<feGaussianBlur stdDeviation="12.0588"/>
<feColorMatrix type="matrix" values="0 0 0 0 0 0 0 0 0 0 0 0 0 0 0 0 0 0 0.234572 0"/>
<feBlend mode="normal" in2="effect5_dropShadow_11_58" result="effect6_dropShadow_11_58"/>
<feColorMatrix in="SourceAlpha" type="matrix" values="0 0 0 0 0 0 0 0 0 0 0 0 0 0 0 0 0 0 127 0" result="hardAlpha"/>
<feOffset dy="50.0488"/>
<feGaussianBlur stdDeviation="20.0195"/>
<feColorMatrix type="matrix" values="0 0 0 0 0 0 0 0 0 0 0 0 0 0 0 0 0 0 0.27372 0"/>
<feBlend mode="normal" in2="effect6_dropShadow_11_58" result="effect7_dropShadow_11_58"/>
<feColorMatrix in="SourceAlpha" type="matrix" values="0 0 0 0 0 0 0 0 0 0 0 0 0 0 0 0 0 0 127 0" result="hardAlpha"/>
<feOffset dy="100"/>
<feGaussianBlur stdDeviation="40"/>
<feColorMatrix type="matrix" values="0 0 0 0 0 0 0 0 0 0 0 0 0 0 0 0 0 0 0.36 0"/>
<feBlend mode="normal" in2="effect7_dropShadow_11_58" result="effect8_dropShadow_11_58"/>
<feBlend mode="normal" in="SourceGraphic" in2="effect8_dropShadow_11_58" result="shape"/>
</filter>
<linearGradient id="paint0_linear_11_58" x1="129.07" y1="67" x2="61.0703" y2="-2" gradientUnits="userSpaceOnUse">
<stop stop-color="#FBD300"/>
<stop offset="1" stop-color="white"/>
</linearGradient>
<linearGradient id="paint1_linear_11_58" x1="497.57" y1="3.99952" x2="565.57" y2="72.9995" gradientUnits="userSpaceOnUse">
<stop stop-color="#FBD300"/>
<stop offset="1" stop-color="white"/>
</linearGradient>
</defs>
</svg>
