<svg width="467" height="252" viewBox="0 0 467 252" fill="none" xmlns="http://www.w3.org/2000/svg">
<g filter="url(#filter0_dddddddd_11_183)">
<path d="M116.758 50.5C116.758 54.8099 115.951 58.5013 114.336 61.5742C112.734 64.6341 110.547 66.9779 107.773 68.6055C105.013 70.2331 101.882 71.0469 98.3789 71.0469C94.8763 71.0469 91.7383 70.2331 88.9648 68.6055C86.2044 66.9648 84.0169 64.6146 82.4023 61.5547C80.8008 58.4818 80 54.7969 80 50.5C80 46.1901 80.8008 42.5052 82.4023 39.4453C84.0169 36.3724 86.2044 34.0221 88.9648 32.3945C91.7383 30.7669 94.8763 29.9531 98.3789 29.9531C101.882 29.9531 105.013 30.7669 107.773 32.3945C110.547 34.0221 112.734 36.3724 114.336 39.4453C115.951 42.5052 116.758 46.1901 116.758 50.5ZM109.473 50.5C109.473 47.4661 108.997 44.9076 108.047 42.8242C107.109 40.7279 105.807 39.1458 104.141 38.0781C102.474 36.9974 100.553 36.457 98.3789 36.457C96.2044 36.457 94.2839 36.9974 92.6172 38.0781C90.9505 39.1458 89.6419 40.7279 88.6914 42.8242C87.7539 44.9076 87.2852 47.4661 87.2852 50.5C87.2852 53.5339 87.7539 56.099 88.6914 58.1953C89.6419 60.2786 90.9505 61.8607 92.6172 62.9414C94.2839 64.0091 96.2044 64.543 98.3789 64.543C100.553 64.543 102.474 64.0091 104.141 62.9414C105.807 61.8607 107.109 60.2786 108.047 58.1953C108.997 56.099 109.473 53.5339 109.473 50.5ZM142.417 57.8828V40.5H149.487V70.5H142.632V65.168H142.319C141.642 66.8477 140.529 68.2214 138.979 69.2891C137.443 70.3568 135.549 70.8906 133.296 70.8906C131.33 70.8906 129.591 70.4544 128.081 69.582C126.584 68.6966 125.412 67.4141 124.565 65.7344C123.719 64.0417 123.296 61.9974 123.296 59.6016V40.5H130.366V58.5078C130.366 60.4089 130.887 61.9193 131.929 63.0391C132.97 64.1589 134.338 64.7187 136.03 64.7187C137.072 64.7187 138.081 64.4648 139.058 63.957C140.034 63.4492 140.835 62.694 141.46 61.6914C142.098 60.6758 142.417 59.4062 142.417 57.8828ZM156.758 70.5V40.5H163.613V45.5H163.926C164.473 43.7682 165.41 42.4336 166.738 41.4961C168.079 40.5456 169.609 40.0703 171.328 40.0703C171.719 40.0703 172.155 40.0898 172.637 40.1289C173.132 40.1549 173.542 40.2005 173.867 40.2656V46.7695C173.568 46.6654 173.092 46.5742 172.441 46.4961C171.803 46.4049 171.185 46.3594 170.586 46.3594C169.297 46.3594 168.138 46.6393 167.109 47.1992C166.094 47.7461 165.293 48.5078 164.707 49.4844C164.121 50.4609 163.828 51.5872 163.828 52.8633V70.5H156.758ZM192.52 70.5V30.5H207.832C210.723 30.5 213.125 30.9557 215.039 31.8672C216.966 32.7656 218.405 33.9961 219.355 35.5586C220.319 37.1211 220.801 38.8919 220.801 40.8711C220.801 42.4987 220.488 43.8919 219.863 45.0508C219.238 46.1966 218.398 47.1276 217.344 47.8437C216.289 48.5599 215.111 49.0742 213.809 49.3867V49.7773C215.228 49.8555 216.589 50.2917 217.891 51.0859C219.206 51.8672 220.28 52.974 221.113 54.4062C221.947 55.8385 222.363 57.5703 222.363 59.6016C222.363 61.6719 221.862 63.5339 220.859 65.1875C219.857 66.8281 218.346 68.1237 216.328 69.0742C214.31 70.0247 211.771 70.5 208.711 70.5H192.52ZM199.766 64.4453H207.559C210.189 64.4453 212.083 63.944 213.242 62.9414C214.414 61.9258 215 60.6237 215 59.0352C215 57.8503 214.707 56.7826 214.121 55.832C213.535 54.8685 212.702 54.1133 211.621 53.5664C210.54 53.0065 209.251 52.7266 207.754 52.7266H199.766V64.4453ZM199.766 47.5117H206.934C208.184 47.5117 209.31 47.2839 210.313 46.8281C211.315 46.3594 212.103 45.7018 212.676 44.8555C213.262 43.9961 213.555 42.9805 213.555 41.8086C213.555 40.2591 213.008 38.9831 211.914 37.9805C210.833 36.9779 209.225 36.4766 207.09 36.4766H199.766V47.5117ZM241.636 71.0859C238.628 71.0859 236.03 70.4609 233.843 69.2109C231.668 67.9479 229.995 66.1641 228.823 63.8594C227.651 61.5417 227.065 58.8138 227.065 55.6758C227.065 52.5898 227.651 49.8815 228.823 47.5508C230.008 45.207 231.662 43.3841 233.784 42.082C235.907 40.7669 238.4 40.1094 241.265 40.1094C243.114 40.1094 244.858 40.4089 246.499 41.0078C248.153 41.5937 249.611 42.5052 250.874 43.7422C252.15 44.9792 253.153 46.5547 253.882 48.4687C254.611 50.3698 254.976 52.6354 254.976 55.2656V57.4336H230.386V52.668H248.198C248.185 51.3138 247.892 50.1094 247.319 49.0547C246.746 47.987 245.946 47.1471 244.917 46.5352C243.901 45.9232 242.716 45.6172 241.362 45.6172C239.917 45.6172 238.647 45.9687 237.554 46.6719C236.46 47.362 235.607 48.2734 234.995 49.4062C234.396 50.526 234.09 51.7565 234.077 53.0977V57.2578C234.077 59.0026 234.396 60.5 235.034 61.75C235.672 62.987 236.564 63.9375 237.71 64.6016C238.856 65.2526 240.197 65.5781 241.733 65.5781C242.762 65.5781 243.693 65.4349 244.526 65.1484C245.36 64.849 246.082 64.4128 246.694 63.8398C247.306 63.2669 247.769 62.5573 248.081 61.7109L254.683 62.4531C254.266 64.1979 253.472 65.7214 252.3 67.0234C251.141 68.3125 249.657 69.3151 247.847 70.0312C246.037 70.7344 243.966 71.0859 241.636 71.0859ZM284.668 48.4297L278.223 49.1328C278.04 48.4818 277.721 47.8698 277.266 47.2969C276.823 46.724 276.224 46.2617 275.469 45.9102C274.714 45.5586 273.789 45.3828 272.695 45.3828C271.224 45.3828 269.987 45.7018 268.984 46.3398C267.995 46.9779 267.507 47.8047 267.52 48.8203C267.507 49.6927 267.826 50.4023 268.477 50.9492C269.141 51.4961 270.234 51.9453 271.758 52.2969L276.875 53.3906C279.714 54.0026 281.823 54.9727 283.203 56.3008C284.596 57.6289 285.299 59.3672 285.313 61.5156C285.299 63.4036 284.746 65.0703 283.652 66.5156C282.572 67.9479 281.068 69.0677 279.141 69.875C277.214 70.6823 275 71.0859 272.5 71.0859C268.828 71.0859 265.872 70.3177 263.633 68.7812C261.393 67.2318 260.059 65.0768 259.629 62.3164L266.523 61.6523C266.836 63.0065 267.5 64.0286 268.516 64.7187C269.531 65.4089 270.853 65.7539 272.48 65.7539C274.16 65.7539 275.508 65.4089 276.523 64.7187C277.552 64.0286 278.066 63.1758 278.066 62.1602C278.066 61.3008 277.734 60.5911 277.07 60.0312C276.419 59.4714 275.404 59.0417 274.023 58.7422L268.906 57.668C266.029 57.069 263.9 56.0599 262.52 54.6406C261.139 53.2083 260.456 51.3984 260.469 49.2109C260.456 47.362 260.957 45.7604 261.973 44.4062C263.001 43.0391 264.427 41.9844 266.25 41.2422C268.086 40.487 270.202 40.1094 272.598 40.1094C276.113 40.1094 278.88 40.8581 280.898 42.3555C282.93 43.8529 284.186 45.8776 284.668 48.4297ZM306.123 40.5V45.9687H288.877V40.5H306.123ZM293.135 33.3125H300.205V61.4766C300.205 62.4271 300.348 63.1563 300.635 63.6641C300.934 64.1589 301.325 64.4974 301.807 64.6797C302.288 64.862 302.822 64.9531 303.408 64.9531C303.851 64.9531 304.255 64.9206 304.619 64.8555C304.997 64.7904 305.283 64.7318 305.479 64.6797L306.67 70.207C306.292 70.3372 305.752 70.4805 305.049 70.6367C304.359 70.793 303.512 70.8841 302.51 70.9102C300.739 70.9622 299.144 70.6953 297.725 70.1094C296.305 69.5104 295.179 68.5859 294.346 67.3359C293.525 66.0859 293.122 64.5234 293.135 62.6484V33.3125ZM338.765 71.0859C335.835 71.0859 333.296 70.4414 331.147 69.1523C328.999 67.8633 327.332 66.0599 326.147 63.7422C324.976 61.4245 324.39 58.7161 324.39 55.6172C324.39 52.5182 324.976 49.8034 326.147 47.4727C327.332 45.1419 328.999 43.332 331.147 42.043C333.296 40.7539 335.835 40.1094 338.765 40.1094C341.694 40.1094 344.233 40.7539 346.382 42.043C348.53 43.332 350.19 45.1419 351.362 47.4727C352.547 49.8034 353.14 52.5182 353.14 55.6172C353.14 58.7161 352.547 61.4245 351.362 63.7422C350.19 66.0599 348.53 67.8633 346.382 69.1523C344.233 70.4414 341.694 71.0859 338.765 71.0859ZM338.804 65.4219C340.392 65.4219 341.72 64.9857 342.788 64.1133C343.856 63.2279 344.65 62.043 345.171 60.5586C345.705 59.0742 345.972 57.4206 345.972 55.5977C345.972 53.7617 345.705 52.1016 345.171 50.6172C344.65 49.1198 343.856 47.9284 342.788 47.043C341.72 46.1576 340.392 45.7148 338.804 45.7148C337.176 45.7148 335.822 46.1576 334.741 47.043C333.674 47.9284 332.873 49.1198 332.339 50.6172C331.818 52.1016 331.558 53.7617 331.558 55.5977C331.558 57.4206 331.818 59.0742 332.339 60.5586C332.873 62.043 333.674 63.2279 334.741 64.1133C335.822 64.9857 337.176 65.4219 338.804 65.4219ZM359.063 70.5V65.2656L372.949 51.6523C374.277 50.3112 375.384 49.1198 376.27 48.0781C377.155 47.0365 377.819 46.0273 378.262 45.0508C378.704 44.0742 378.926 43.0326 378.926 41.9258C378.926 40.6628 378.639 39.582 378.066 38.6836C377.493 37.7721 376.706 37.069 375.703 36.5742C374.701 36.0794 373.561 35.832 372.285 35.832C370.97 35.832 369.818 36.1055 368.828 36.6523C367.839 37.1862 367.07 37.9479 366.523 38.9375C365.99 39.9271 365.723 41.1055 365.723 42.4727H358.828C358.828 39.9336 359.408 37.7266 360.566 35.8516C361.725 33.9766 363.32 32.5247 365.352 31.4961C367.396 30.4674 369.74 29.9531 372.383 29.9531C375.065 29.9531 377.422 30.4544 379.453 31.457C381.484 32.4596 383.06 33.8333 384.18 35.5781C385.313 37.3229 385.879 39.3151 385.879 41.5547C385.879 43.0521 385.592 44.5234 385.02 45.9687C384.447 47.4141 383.438 49.0156 381.992 50.7734C380.56 52.5312 378.548 54.6602 375.957 57.1602L369.063 64.1719V64.4453H386.484V70.5H359.063Z" fill="white"/>
</g>
<path d="M421.57 71.5L421.57 25.5C421.57 12.7974 411.273 2.5 398.57 2.5L353.07 2.50001" stroke="url(#paint0_linear_11_183)" stroke-width="5" stroke-linecap="round"/>
<path d="M43.0703 35.5V81.5C43.0703 94.2026 53.3678 104.5 66.0703 104.5H111.57" stroke="url(#paint1_linear_11_183)" stroke-width="5" stroke-linecap="round"/>
<defs>
<filter id="filter0_dddddddd_11_183" x="0" y="29.9531" width="466.484" height="221.133" filterUnits="userSpaceOnUse" color-interpolation-filters="sRGB">
<feFlood flood-opacity="0" result="BackgroundImageFix"/>
<feColorMatrix in="SourceAlpha" type="matrix" values="0 0 0 0 0 0 0 0 0 0 0 0 0 0 0 0 0 0 127 0" result="hardAlpha"/>
<feOffset dy="1.99324"/>
<feGaussianBlur stdDeviation="0.797297"/>
<feColorMatrix type="matrix" values="0 0 0 0 0 0 0 0 0 0 0 0 0 0 0 0 0 0 0.0862802 0"/>
<feBlend mode="normal" in2="BackgroundImageFix" result="effect1_dropShadow_11_183"/>
<feColorMatrix in="SourceAlpha" type="matrix" values="0 0 0 0 0 0 0 0 0 0 0 0 0 0 0 0 0 0 127 0" result="hardAlpha"/>
<feOffset dy="4.5288"/>
<feGaussianBlur stdDeviation="1.81152"/>
<feColorMatrix type="matrix" values="0 0 0 0 0 0 0 0 0 0 0 0 0 0 0 0 0 0 0.125428 0"/>
<feBlend mode="normal" in2="effect1_dropShadow_11_183" result="effect2_dropShadow_11_183"/>
<feColorMatrix in="SourceAlpha" type="matrix" values="0 0 0 0 0 0 0 0 0 0 0 0 0 0 0 0 0 0 127 0" result="hardAlpha"/>
<feOffset dy="7.88218"/>
<feGaussianBlur stdDeviation="3.15287"/>
<feColorMatrix type="matrix" values="0 0 0 0 0 0 0 0 0 0 0 0 0 0 0 0 0 0 0.154478 0"/>
<feBlend mode="normal" in2="effect2_dropShadow_11_183" result="effect3_dropShadow_11_183"/>
<feColorMatrix in="SourceAlpha" type="matrix" values="0 0 0 0 0 0 0 0 0 0 0 0 0 0 0 0 0 0 127 0" result="hardAlpha"/>
<feOffset dy="12.5216"/>
<feGaussianBlur stdDeviation="5.00862"/>
<feColorMatrix type="matrix" values="0 0 0 0 0 0 0 0 0 0 0 0 0 0 0 0 0 0 0.18 0"/>
<feBlend mode="normal" in2="effect3_dropShadow_11_183" result="effect4_dropShadow_11_183"/>
<feColorMatrix in="SourceAlpha" type="matrix" values="0 0 0 0 0 0 0 0 0 0 0 0 0 0 0 0 0 0 127 0" result="hardAlpha"/>
<feOffset dy="19.3198"/>
<feGaussianBlur stdDeviation="7.72793"/>
<feColorMatrix type="matrix" values="0 0 0 0 0 0 0 0 0 0 0 0 0 0 0 0 0 0 0.205522 0"/>
<feBlend mode="normal" in2="effect4_dropShadow_11_183" result="effect5_dropShadow_11_183"/>
<feColorMatrix in="SourceAlpha" type="matrix" values="0 0 0 0 0 0 0 0 0 0 0 0 0 0 0 0 0 0 127 0" result="hardAlpha"/>
<feOffset dy="30.1471"/>
<feGaussianBlur stdDeviation="12.0588"/>
<feColorMatrix type="matrix" values="0 0 0 0 0 0 0 0 0 0 0 0 0 0 0 0 0 0 0.234572 0"/>
<feBlend mode="normal" in2="effect5_dropShadow_11_183" result="effect6_dropShadow_11_183"/>
<feColorMatrix in="SourceAlpha" type="matrix" values="0 0 0 0 0 0 0 0 0 0 0 0 0 0 0 0 0 0 127 0" result="hardAlpha"/>
<feOffset dy="50.0488"/>
<feGaussianBlur stdDeviation="20.0195"/>
<feColorMatrix type="matrix" values="0 0 0 0 0 0 0 0 0 0 0 0 0 0 0 0 0 0 0.27372 0"/>
<feBlend mode="normal" in2="effect6_dropShadow_11_183" result="effect7_dropShadow_11_183"/>
<feColorMatrix in="SourceAlpha" type="matrix" values="0 0 0 0 0 0 0 0 0 0 0 0 0 0 0 0 0 0 127 0" result="hardAlpha"/>
<feOffset dy="100"/>
<feGaussianBlur stdDeviation="40"/>
<feColorMatrix type="matrix" values="0 0 0 0 0 0 0 0 0 0 0 0 0 0 0 0 0 0 0.36 0"/>
<feBlend mode="normal" in2="effect7_dropShadow_11_183" result="effect8_dropShadow_11_183"/>
<feBlend mode="normal" in="SourceGraphic" in2="effect8_dropShadow_11_183" result="shape"/>
</filter>
<linearGradient id="paint0_linear_11_183" x1="422.07" y1="73.5" x2="353.07" y2="2.5" gradientUnits="userSpaceOnUse">
<stop stop-color="#55B000"/>
<stop offset="0.500917" stop-color="white" stop-opacity="0.156606"/>
<stop offset="1" stop-color="#50790B"/>
</linearGradient>
<linearGradient id="paint1_linear_11_183" x1="42.5703" y1="33.5" x2="111.57" y2="104.5" gradientUnits="userSpaceOnUse">
<stop stop-color="#55B000"/>
<stop offset="0.500917" stop-color="white" stop-opacity="0.156606"/>
<stop offset="1" stop-color="#50790B"/>
</linearGradient>
</defs>
</svg>
